<svg id="Layer_1" data-name="Layer 1" xmlns="http://www.w3.org/2000/svg" viewBox="0 0 533.54 737.6"><defs><style>.cls-1{fill:#fff;stroke:#fff;stroke-miterlimit:10;stroke-width:20px;}</style></defs><path class="cls-1" d="M323.49,460a39.63,39.63,0,0,1,39.59,39.59V635.91a14.71,14.71,0,1,0,29.41,0V231.66a39.59,39.59,0,0,1,79.18,0V501.92a14.71,14.71,0,0,0,29.41,0V198.31a39.59,39.59,0,0,1,79.18,0V501.92a14.71,14.71,0,0,0,29.41,0V231.66a39.59,39.59,0,0,1,79.18,0V501.92a14.71,14.71,0,0,0,29.41,0V316.64a39.59,39.59,0,0,1,79.18,0V717.5c0,87.58-71.25,158.82-158.82,158.82H442.72c-87.57,0-158.82-71.24-158.82-158.82v-218A39.63,39.63,0,0,1,323.49,460Z" transform="translate(-273.9 -148.72)"/></svg>